<?xml version="1.0" encoding="utf-8"?>
<!-- Generator: Adobe Illustrator 17.1.0, SVG Export Plug-In . SVG Version: 6.00 Build 0)  -->
<!DOCTYPE svg PUBLIC "-//W3C//DTD SVG 1.1//EN" "http://www.w3.org/Graphics/SVG/1.1/DTD/svg11.dtd">
<svg version="1.1" id="Layer_1" xmlns="http://www.w3.org/2000/svg" xmlns:xlink="http://www.w3.org/1999/xlink" x="0px" y="0px"
	 width="24px" height="48px" viewBox="0 0 24 48" style="enable-background:new 0 0 24 48;" xml:space="preserve">
<path fill="#BBBBBB" d="M3.2,5v13.8h17.6V5L3.2,5L3.2,5z M7,15.5l-1.3-1.3l2.5-2.5L5.7,9.2L7,8l3.8,3.8L7,15.5z M17.7,15.3H12v-1.7
	h5.7V15.3z"/>
<path fill="#78B2F2" d="M3.2,29v13.8h17.6V29L3.2,29L3.2,29z M7,39.5l-1.3-1.3l2.5-2.5l-2.5-2.5L7,32l3.8,3.8L7,39.5z M17.7,39.3H12
	v-1.7h5.7V39.3z"/>
</svg>
